<?xml version="1.0" encoding="UTF-8"?>
<svg xmlns="http://www.w3.org/2000/svg" width="700" height="700">
  <g id="ghana">
    <path d="M 198.0895 524.2201 190.219 517.6879 179.0228 506.2664 171.4439 505.7033 170.8807 500.5822 159.0353 497.3691 150.6812 492.2414 150.8336 484.9075 153.6889 477.3551 150.8071 470.2531 153.6757 458.5932 162.043 450.4113 162.9772 445.7208 174.1667 438.6454 184.3294 429.2247 191.3718 430.5033 191.2194 439.5596 196.0821 438.9038 203.8863 443.2696 209.5308 428.4628 215.6655 427.6148 221.4491 420.1286 228.2331 417.048 229.9953 411.3174 236.5938 419.0885 243.8084 419.6317 254.3487 426.6211 259.6023 423.9512 263.5839 426.5747 259.0392 432.0668 252.0896 434.9553 248.6711 444.4422 231.8172 453.8166 229.6111 449.6958 221.6876 451.9284 212.9493 460.3355 204.1248 466.4106 208.6961 475.4868 215.851 475.9837 214.6652 483.2977 211.4322 487.9484 207.1127 486.8619 199.5271 491.3139 203.8863 503.2719 196.8307 513.0438 198.0895 524.2201 Z" id="GH.AF" fill="#cee3f5" stroke="#6e6e6e" stroke-width="0.4">
      <desc>
        <name>Ahafo</name>
        <id>GH.AF</id>
        <admin>Ghana</admin>
        <iso_a2>GH</iso_a2>
        <type_en>Region</type_en>
        <code_hasc>GH.AF</code_hasc>
        <woe_name>Ahafo</woe_name>
        <woe_label>Ahafo,GH,Ghana</woe_label>
        <fips>GH01</fips>
        <postal>AF</postal>
      </desc>
    </path>
    <path d="M 435.9192 432.0668 426.9026 438.5129 419.953 441.2689 406.8224 440.3414 395.5864 437.3668 399.5349 458.1824 390.9489 461.5943 383.4428 459.2888 380.1502 460.8523 379.9647 468.5372 375.7778 476.9178 363.9323 477.2623 358.2017 480.8266 355.883 495.8719 362.6868 498.1906 354.1472 507.2006 352.6566 514.6934 341.944 523.4383 339.0887 528.4336 340.2083 539.9146 335.6039 540.4181 331.5892 548.2555 326.6271 563.7712 328.9525 569.7005 325.0106 574.2187 308.1633 571.1315 298.842 572.7811 294.1184 570.5021 276.5689 570.2437 266.161 563.3207 266.2472 559.7365 254.2493 561.3862 247.6177 555.4568 242.0594 547.0564 240.4562 541.2595 243.7554 531.3419 236.6865 530.8848 230.055 524.9621 221.3961 523.2462 219.8459 514.2561 216.858 509.6783 206.6887 510.1553 206.8609 519.1851 203.7472 524.611 198.0895 524.2201 196.8307 513.0438 203.8863 503.2719 199.5271 491.3139 207.1127 486.8619 211.4322 487.9484 214.6652 483.2977 215.851 475.9837 208.6961 475.4868 204.1248 466.4106 212.9493 460.3355 221.6876 451.9284 229.6111 449.6958 231.8172 453.8166 248.6711 444.4422 252.0896 434.9553 259.0392 432.0668 263.5839 426.5747 259.6023 423.9512 254.3487 426.6211 243.8084 419.6317 236.5938 419.0885 229.9953 411.3174 233.0296 403.6921 240.9 404.6725 247.8032 409.5551 259.6487 403.1091 265.737 416.2 270.878 419.1945 283.4721 419.1481 290.733 410.4429 296.0529 410.8139 296.9936 405.4278 302.1412 400.0284 306.2885 391.8864 319.0746 386.3479 321.8306 395.9673 326.6934 400.6578 331.3706 400.3928 342.1097 403.5662 348.8936 396.9412 355.088 396.186 361.7196 399.4388 367.8742 397.6368 375.4068 399.8761 387.2058 396.2456 391.1676 399.4587 390.9291 407.3424 396.812 416.1139 403.8477 416.3259 422.4838 420.3008 433.4547 425.3159 435.9192 432.0668 Z" id="GH.AH" fill="#cee3f5" stroke="#6e6e6e" stroke-width="0.4">
      <desc>
        <name>Ashanti</name>
        <id>GH.AH</id>
        <admin>Ghana</admin>
        <iso_a2>GH</iso_a2>
        <type_en>Region</type_en>
        <code_hasc>GH.AH</code_hasc>
        <woe_name>Ashanti</woe_name>
        <woe_label>Ashanti,GH,Ghana</woe_label>
        <fips>GH02</fips>
        <postal>AH</postal>
      </desc>
    </path>
    <path d="M 231.6184 329.2142 241.9998 343.1067 240.0852 348.5988 246.2928 349.1818 254.0241 358.8675 255.3491 363.9025 250.917 367.3541 237.1768 369.4145 236.8985 376.5164 239.5022 380.3987 235.1496 385.5463 229.9688 396.7888 233.0296 403.6921 229.9953 411.3174 228.2331 417.048 221.4491 420.1286 215.6655 427.6148 209.5308 428.4628 203.8863 443.2696 196.0821 438.9038 191.2194 439.5596 191.3718 430.5033 184.3294 429.2247 174.1667 438.6454 162.9772 445.7208 162.043 450.4113 153.6757 458.5932 150.8071 470.2531 143.036 460.5939 132.7276 462.005 123.6116 453.4919 128.1364 447.3042 132.7806 446.3502 133.6815 438.7779 141.3334 428.1581 138.6304 424.6005 143.354 401.3269 144.5664 388.0638 152.7085 369.441 157.0412 349.3143 161.089 345.8826 175.8163 339.7214 178.738 329.2539 184.6673 329.6912 191.1001 323.3047 190.06 309.326 185.502 288.2056 180.7122 260.2416 190.59 267.5821 199.7855 283.1441 204.9596 287.0529 205.0788 293.9163 212.4855 304.2712 213.5257 313.3672 219.2231 315.5336 231.6184 329.2142 Z" id="GH.BO" fill="#cee3f5" stroke="#6e6e6e" stroke-width="0.4">
      <desc>
        <name>Bono</name>
        <id>GH.BO</id>
        <admin>Ghana</admin>
        <iso_a2>GH</iso_a2>
        <type_en>Region</type_en>
        <code_hasc>GH.BO</code_hasc>
        <woe_name>Bono</woe_name>
        <woe_label>Bono,GH,Ghana</woe_label>
        <fips>GH03</fips>
        <postal>BO</postal>
      </desc>
    </path>
    <path d="M 420.1385 328.9955 429.8839 332.8579 438.5891 342.2389 446.2409 344.9948 446.115 356.1115 448.1754 368.5665 451.0308 372.674 460.319 371.9783 460.3455 386.1756 470.263 401.8039 471.7868 407.5345 483.4666 414.1794 485.2421 420.4731 481.6845 434.6307 462.386 433.0672 435.9192 432.0668 433.4547 425.3159 422.4838 420.3008 403.8477 416.3259 396.812 416.1139 390.9291 407.3424 391.1676 399.4587 387.2058 396.2456 375.4068 399.8761 367.8742 397.6368 361.7196 399.4388 355.088 396.186 348.8936 396.9412 342.1097 403.5662 331.3706 400.3928 326.6934 400.6578 321.8306 395.9673 319.0746 386.3479 306.2885 391.8864 302.1412 400.0284 296.9936 405.4278 296.0529 410.8139 290.733 410.4429 283.4721 419.1481 270.878 419.1945 265.737 416.2 259.6487 403.1091 247.8032 409.5551 240.9 404.6725 233.0296 403.6921 229.9688 396.7888 235.1496 385.5463 239.5022 380.3987 236.8985 376.5164 237.1768 369.4145 250.917 367.3541 255.3491 363.9025 254.0241 358.8675 246.2928 349.1818 240.0852 348.5988 241.9998 343.1067 231.6184 329.2142 240.0785 329.5587 249.115 327.1472 256.1971 317.1832 266.6712 321.0257 272.2295 317.011 269.9174 310.8431 258.5092 309.0213 254.5342 298.7526 257.4956 293.4592 255.8062 286.9469 259.1121 275.9825 265.2269 273.8361 274.3296 277.4334 281.7893 270.1658 286.9767 272.0937 297.8748 270.5567 301.598 262.6067 309.0577 261.5467 314.7088 263.1964 324.633 270.4706 330.5226 273.0742 337.6776 272.0539 336.4718 286.7481 325.3352 296.2549 325.4214 306.6561 323.0695 312.1482 324.4276 317.6602 336.2863 335.8325 336.5911 345.7965 341.7387 346.3861 348.0655 342.3647 349.1851 319.1376 364.7406 317.6205 368.7884 309.9355 381.4885 309.1736 392.4793 316.3419 403.013 325.2193 420.1385 328.9955 Z" id="GH.BE" fill="#cee3f5" stroke="#6e6e6e" stroke-width="0.4">
      <desc>
        <name>Bono East</name>
        <id>GH.BE</id>
        <admin>Ghana</admin>
        <iso_a2>GH</iso_a2>
        <type_en>Region</type_en>
        <code_hasc>GH.BE</code_hasc>
        <woe_name>Bono East</woe_name>
        <woe_label>Bono East,GH,Ghana</woe_label>
        <fips>GH04</fips>
        <postal>BE</postal>
      </desc>
    </path>
    <path d="M 328.9525 569.7005 335.0739 572.6287 335.6702 592.8018 349.8476 591.1256 366.41 590.6089 369.8749 589.0189 378.8385 594.2526 406.6567 591.2581 408.2401 600.0694 415.4282 604.1768 418.3895 609.6888 417.8397 620.2358 412.0494 624.0584 407.4848 630.266 384.1053 638.3219 374.2871 647.7426 346.0383 649.6506 337.2006 653.4533 327.2896 660.0518 290.3753 667.6308 290.2362 654.4073 296.6624 649.4585 303.4 648.6569 305.149 642.1445 309.1107 637.348 303.1946 629.7691 285.6318 623.6476 285.9564 606.3233 279.0135 601.5931 263.9152 606.8202 264.5512 597.9891 267.9829 591.6888 261.0333 587.939 264.9222 576.9482 258.8868 575.239 246.4054 560.8893 238.4355 554.9202 230.5452 552.6611 224.2316 546.7119 222.6217 541.1336 229.525 535.4892 233.9769 536.5492 236.6865 530.8848 243.7554 531.3419 240.4562 541.2595 242.0594 547.0564 247.6177 555.4568 254.2493 561.3862 266.2472 559.7365 266.161 563.3207 276.5689 570.2437 294.1184 570.5021 298.842 572.7811 308.1633 571.1315 325.0106 574.2187 328.9525 569.7005 Z" id="GH.CP" fill="#cee3f5" stroke="#6e6e6e" stroke-width="0.4">
      <desc>
        <name>Central</name>
        <id>GH.CP</id>
        <admin>Ghana</admin>
        <iso_a2>GH</iso_a2>
        <type_en>Region</type_en>
        <code_hasc>GH.CP</code_hasc>
        <woe_name>Central</woe_name>
        <woe_label>Central,GH,Ghana</woe_label>
        <fips>GH05</fips>
        <postal>CP</postal>
      </desc>
    </path>
    <path d="M 481.6845 434.6307 487.435 435.9954 486.2623 443.3359 483.5726 448.5232 486.587 456.9435 475.2384 466.1258 475.3908 471.1409 482.7909 477.0039 484.0032 486.3385 475.2781 490.3798 473.2377 501.1453 482.8969 501.47 481.2472 507.0482 484.6127 519.0129 480.7901 529.8646 475.8678 534.8797 471.8464 545.4332 477.7956 550.8127 471.6543 555.8278 463.8633 558.3718 461.2133 565.7918 446.274 578.4256 445.1147 582.8113 435.5217 588.8268 432.9711 583.6129 422.2254 588.4359 413.6726 586.7863 406.6567 591.2581 378.8385 594.2526 369.8749 589.0189 366.41 590.6089 349.8476 591.1256 335.6702 592.8018 335.0739 572.6287 328.9525 569.7005 326.6271 563.7712 331.5892 548.2555 335.6039 540.4181 340.2083 539.9146 339.0887 528.4336 341.944 523.4383 352.6566 514.6934 354.1472 507.2006 362.6868 498.1906 355.883 495.8719 358.2017 480.8266 363.9323 477.2623 375.7778 476.9178 379.9647 468.5372 380.1502 460.8523 383.4428 459.2888 390.9489 461.5943 399.5349 458.1824 395.5864 437.3668 406.8224 440.3414 419.953 441.2689 426.9026 438.5129 435.9192 432.0668 462.386 433.0672 481.6845 434.6307 Z" id="GH.EP" fill="#cee3f5" stroke="#6e6e6e" stroke-width="0.4">
      <desc>
        <name>Eastern</name>
        <id>GH.EP</id>
        <admin>Ghana</admin>
        <iso_a2>GH</iso_a2>
        <type_en>Region</type_en>
        <code_hasc>GH.EP</code_hasc>
        <woe_name>Eastern</woe_name>
        <woe_label>Eastern,GH,Ghana</woe_label>
        <fips>GH06</fips>
        <postal>EP</postal>
      </desc>
    </path>
    <path d="M 535.6714 587.4554 509.0787 585.5673 496.1203 586.4352 482.029 590.5161 469.2627 595.7962 462.4721 603.3288 439.2184 613.3127 424.5044 616.7245 417.8397 620.2358 418.3895 609.6888 415.4282 604.1768 408.2401 600.0694 406.6567 591.2581 413.6726 586.7863 422.2254 588.4359 432.9711 583.6129 435.5217 588.8268 445.1147 582.8113 446.274 578.4256 461.2133 565.7918 463.8633 558.3718 471.6543 555.8278 477.7956 550.8127 487.3687 550.773 498.5318 557.5437 499.6382 566.812 504.8056 566.8981 511.0132 562.5389 518.9168 565.0763 524.495 570.045 529.4836 580.6648 535.6714 587.4554 Z" id="GH.AA" fill="#cee3f5" stroke="#6e6e6e" stroke-width="0.4">
      <desc>
        <name>Greater Accra</name>
        <id>GH.AA</id>
        <admin>Ghana</admin>
        <iso_a2>GH</iso_a2>
        <type_en>Region</type_en>
        <code_hasc>GH.AA</code_hasc>
        <woe_name>Greater Accra</woe_name>
        <woe_label>Greater Accra,GH,Ghana</woe_label>
        <fips>GH07</fips>
        <postal>AA</postal>
      </desc>
    </path>
    <path d="M 501.46 135.8711 500.7644 144.9473 496.5774 157.7799 503.3084 167.1144 501.5925 174.4947 488.3691 174.4947 489.7603 180.7221 486.7658 186.7575 491.9267 190.5138 498.5318 187.8903 500.8969 182.9614 515.0478 184.2599 516.2403 189.3677 523.1899 192.8591 522.6665 203.8631 517.0486 209.4016 520.4141 213.8735 514.0938 221.7506 511.3378 233.172 519.0891 250.43 515.2002 258.6583 503.156 259.6785 503.3945 265.3031 492.7084 266.9328 485.3746 263.6734 476.9476 273.0079 470.8063 288.3116 471.2833 301.8133 475.4504 304.0327 484.4206 301.0779 482.4397 318.5281 475.3245 320.5288 470.5678 315.1229 462.9888 313.1486 454.8202 307.5439 449.931 309.2399 446.5059 316.0371 440.8283 307.6963 434.1835 307.5903 437.9199 297.7787 440.2851 285.4695 437.125 283.9723 425.7631 287.7286 422.4506 282.3425 416.7068 279.0632 416.2629 275.1345 408.6641 268.4897 427.5717 264.1702 429.758 257.5055 424.5905 252.7952 440.1459 242.7252 439.4371 225.7057 431.4142 222.1414 426.6708 214.3306 416.3424 212.8731 400.4293 205.7513 384.854 201.8028 383.2441 205.7115 374.5389 202.4984 371.498 204.7111 361.3419 204.8834 357.2278 200.7163 347.933 200.1995 342.4674 203.4325 334.7361 202.2798 327.3029 205.844 324.2951 201.498 326.9981 191.6202 322.8178 181.7026 312.8207 170.8244 317.584 168.2407 318.6374 162.795 315.4839 157.866 315.199 150.8104 323.6989 149.9624 327.4552 147.1402 333.0865 150.2009 335.9219 144.1854 334.173 133.9432 327.2697 125.6686 330.622 118.8516 337.6776 115.8173 341.3147 108.2582 345.8528 116.9899 350.5631 122.0912 354.4255 130.5976 362.9584 127.2586 370.1465 114.2075 393.155 108.6292 396.865 111.107 401.6218 106.7875 407.0078 95.0215 420.1054 96.2538 423.6895 98.6454 429.7116 96.8832 439.8478 99.553 446.2343 96.5387 451.6403 99.1622 458.7886 98.7978 459.8552 92.8684 466.6392 91.6561 471.7205 102.0109 468.5737 108.9804 473.8869 114.4261 475.3643 124.2575 478.7099 130.1008 484.1821 132.7507 494.7489 131.0547 501.46 135.8711 Z" id="GH.NP" fill="#cee3f5" stroke="#6e6e6e" stroke-width="0.4">
      <desc>
        <name>Northern</name>
        <id>GH.NP</id>
        <admin>Ghana</admin>
        <iso_a2>GH</iso_a2>
        <type_en>Region</type_en>
        <code_hasc>GH.NP</code_hasc>
        <woe_name>Northern</woe_name>
        <woe_label>Northern,GH,Ghana</woe_label>
        <fips>GH08</fips>
        <postal>NP</postal>
      </desc>
    </path>
    <path d="M 501.46 135.8711 494.7489 131.0547 484.1821 132.7507 478.7099 130.1008 475.3643 124.2575 473.8869 114.4261 468.5737 108.9804 471.7205 102.0109 466.6392 91.6561 459.8552 92.8684 458.7886 98.7978 451.6403 99.1622 446.2343 96.5387 439.8478 99.553 429.7116 96.8832 423.6895 98.6454 420.1054 96.2538 407.0078 95.0215 401.6218 106.7875 396.865 111.107 393.155 108.6292 370.1465 114.2075 362.9584 127.2586 354.4255 130.5976 350.5631 122.0912 345.8528 116.9899 341.3147 108.2582 337.6776 115.8173 330.622 118.8516 327.2697 125.6686 322.1884 124.5225 313.3308 118.2884 302.6712 117.2483 293.807 120.6138 289.5273 120.0043 288.1493 114.0816 281.4448 108.2582 290.733 90.8743 306.3083 77.8033 312.4232 77.8894 314.9937 87.7275 318.0213 92.4113 329.138 96.3664 328.5484 86.1375 335.3787 83.7061 338.9827 78.691 350.0331 71.0922 356.9363 70.2243 365.1182 72.2913 363.2102 65.9909 375.5061 60.8301 384.6221 58.9155 387.2919 69.7738 401.7211 66.4481 406.7097 66.8853 412.7914 63.1952 428.009 60.8897 445.4194 55.4639 452.0311 51.4028 455.4032 59.7635 466.4007 63.2614 468.4611 67.4948 477.4313 71.4234 480.3396 81.8445 494.2719 84.1235 501.089 100.5998 499.9628 110.365 501.566 119.2424 507.0382 121.8063 500.6584 128.8818 501.46 135.8711 Z" id="GH.NE" fill="#cee3f5" stroke="#6e6e6e" stroke-width="0.4">
      <desc>
        <name>Northern East</name>
        <id>GH.NE</id>
        <admin>Ghana</admin>
        <iso_a2>GH</iso_a2>
        <type_en>Region</type_en>
        <code_hasc>GH.NE</code_hasc>
        <woe_name>Northern East</woe_name>
        <woe_label>Northern East,GH,Ghana</woe_label>
        <fips>GH09</fips>
        <postal>NE</postal>
      </desc>
    </path>
    <path d="M 503.3945 265.3031 512.855 280.4345 532.1336 292.3528 532.6967 299.8391 536.3007 300.9719 540.8388 308.3058 540.7328 314.9705 531.2459 317.2958 525.4027 335.4615 528.4435 345.081 530.007 359.8878 525.5352 386.2816 519.4799 389.3026 518.7181 403.8047 524.1042 411.2909 531.8752 410.9464 533.4122 419.7576 531.8289 425.5743 517.5256 421.4271 508.2572 423.6465 502.0695 437.4264 497.5977 443.7665 486.2623 443.3359 487.435 435.9954 481.6845 434.6307 485.2421 420.4731 483.4666 414.1794 471.7868 407.5345 470.263 401.8039 460.3455 386.1756 460.319 371.9783 451.0308 372.674 448.1754 368.5665 446.115 356.1115 446.2409 344.9948 438.5891 342.2389 429.8839 332.8579 420.1385 328.9955 426.4124 321.0058 440.4043 321.6816 446.5059 316.0371 449.931 309.2399 454.8202 307.5439 462.9888 313.1486 470.5678 315.1229 475.3245 320.5288 482.4397 318.5281 484.4206 301.0779 475.4504 304.0327 471.2833 301.8133 470.8063 288.3116 476.9476 273.0079 485.3746 263.6734 492.7084 266.9328 503.3945 265.3031 Z" id="GH.OT" fill="#cee3f5" stroke="#6e6e6e" stroke-width="0.4">
      <desc>
        <name>Oti</name>
        <id>GH.OT</id>
        <admin>Ghana</admin>
        <iso_a2>GH</iso_a2>
        <type_en>Region</type_en>
        <code_hasc>GH.OT</code_hasc>
        <woe_name>Oti</woe_name>
        <woe_label>Oti,GH,Ghana</woe_label>
        <fips>GH10</fips>
        <postal>OT</postal>
      </desc>
    </path>
    <path d="M 327.2697 125.6686 334.173 133.9432 335.9219 144.1854 333.0865 150.2009 327.4552 147.1402 323.6989 149.9624 315.199 150.8104 315.4839 157.866 318.6374 162.795 317.584 168.2407 312.8207 170.8244 322.8178 181.7026 326.9981 191.6202 324.2951 201.498 327.3029 205.844 334.7361 202.2798 342.4674 203.4325 347.933 200.1995 357.2278 200.7163 361.3419 204.8834 371.498 204.7111 374.5389 202.4984 383.2441 205.7115 384.854 201.8028 400.4293 205.7513 416.3424 212.8731 426.6708 214.3306 431.4142 222.1414 439.4371 225.7057 440.1459 242.7252 424.5905 252.7952 429.758 257.5055 427.5717 264.1702 408.6641 268.4897 416.2629 275.1345 416.7068 279.0632 422.4506 282.3425 425.7631 287.7286 437.125 283.9723 440.2851 285.4695 437.9199 297.7787 434.1835 307.5903 440.8283 307.6963 446.5059 316.0371 440.4043 321.6816 426.4124 321.0058 420.1385 328.9955 403.013 325.2193 392.4793 316.3419 381.4885 309.1736 368.7884 309.9355 364.7406 317.6205 349.1851 319.1376 348.0655 342.3647 341.7387 346.3861 336.5911 345.7965 336.2863 335.8325 324.4276 317.6602 323.0695 312.1482 325.4214 306.6561 325.3352 296.2549 336.4718 286.7481 337.6776 272.0539 330.5226 273.0742 324.633 270.4706 314.7088 263.1964 309.0577 261.5467 301.598 262.6067 297.8748 270.5567 286.9767 272.0937 281.7893 270.1658 274.3296 277.4334 265.2269 273.8361 259.1121 275.9825 255.8062 286.9469 257.4956 293.4592 254.5342 298.7526 258.5092 309.0213 269.9174 310.8431 272.2295 317.011 266.6712 321.0257 256.1971 317.1832 249.115 327.1472 240.0785 329.5587 231.6184 329.2142 219.2231 315.5336 213.5257 313.3672 212.4855 304.2712 205.0788 293.9163 204.9596 287.0529 199.7855 283.1441 190.59 267.5821 180.7122 260.2416 174.233 243.2685 173.809 236.2327 161.3739 233.7616 160.6783 221.9692 167.3629 214.3505 172.961 210.985 166.6673 200.8289 170.8277 197.8742 170.5097 184.1539 162.0762 176.5153 164.216 167.3728 171.6691 168.2606 186.3368 163.4641 189.6228 156.0839 199.1031 153.1954 234.2883 148.7235 241.8673 151.9168 244.7425 147.637 275.224 148.008 277.6951 142.2973 275.86 127.1063 283.9491 124.2575 289.5273 120.0043 293.807 120.6138 302.6712 117.2483 313.3308 118.2884 322.1884 124.5225 327.2697 125.6686 Z" id="GH.SV" fill="#cee3f5" stroke="#6e6e6e" stroke-width="0.4">
      <desc>
        <name>Savannah</name>
        <id>GH.SV</id>
        <admin>Ghana</admin>
        <iso_a2>GH</iso_a2>
        <type_en>Region</type_en>
        <code_hasc>GH.SV</code_hasc>
        <woe_name>Savannah</woe_name>
        <woe_label>Savannah,GH,Ghana</woe_label>
        <fips>GH11</fips>
        <postal>SV</postal>
      </desc>
    </path>
    <path d="M 452.0311 51.4028 445.4194 55.4639 428.009 60.8897 412.7914 63.1952 406.7097 66.8853 401.7211 66.4481 387.2919 69.7738 384.6221 58.9155 375.5061 60.8301 363.2102 65.9909 365.1182 72.2913 356.9363 70.2243 350.0331 71.0922 338.9827 78.691 335.3787 83.7061 328.5484 86.1375 329.138 96.3664 318.0213 92.4113 314.9937 87.7275 312.4232 77.8894 306.3083 77.8033 303.0091 70.2508 291.8394 63.2151 291.1107 55.9409 292.8199 47.6265 298.6697 43.8304 303.5523 36.2316 304.7448 23.9025 306.8383 18.6025 310.3363 20.9478 340.9105 21.491 340.8907 19.5367 387.0998 20.1263 389.0409 24.0946 397.5076 28.1359 400.2305 20.9478 414.7789 15.8466 415.5673 7.5521 432.1894 6.5583 431.9045 1 447.122 4.8624 451.627 10.6128 461.3392 8.2941 464.5324 13.1966 464.5987 22.9485 461.4518 23.7899 458.6495 35.7546 459.4511 39.5507 454.0716 44.8904 452.0311 51.4028 Z" id="GH.UE" fill="#cee3f5" stroke="#6e6e6e" stroke-width="0.4">
      <desc>
        <name>Upper East</name>
        <id>GH.UE</id>
        <admin>Ghana</admin>
        <iso_a2>GH</iso_a2>
        <type_en>Region</type_en>
        <code_hasc>GH.UE</code_hasc>
        <woe_name>Upper East</woe_name>
        <woe_label>Upper East,GH,Ghana</woe_label>
        <fips>GH12</fips>
        <postal>UE</postal>
      </desc>
    </path>
    <path d="M 306.8383 18.6025 304.7448 23.9025 303.5523 36.2316 298.6697 43.8304 292.8199 47.6265 291.1107 55.9409 291.8394 63.2151 303.0091 70.2508 306.3083 77.8033 290.733 90.8743 281.4448 108.2582 288.1493 114.0816 289.5273 120.0043 283.9491 124.2575 275.86 127.1063 277.6951 142.2973 275.224 148.008 244.7425 147.637 241.8673 151.9168 234.2883 148.7235 199.1031 153.1954 189.6228 156.0839 186.3368 163.4641 171.6691 168.2606 164.216 167.3728 159.4593 161.7283 160.2079 154.9974 165.7663 147.8159 162.043 140.9127 163.9643 134.0492 159.9032 125.4301 158.2138 107.8276 162.1424 100.0101 152.6223 94.1735 154.3912 81.0627 150.8402 78.6711 142.7578 59.3262 145.9907 52.5754 150.9065 32.4752 156.0408 28.3479 154.2852 19.5168 162.4803 17.9069 195.7244 17.4299 203.8201 18.9934 220.9059 17.7148 238.515 18.0593 244.1264 19.5168 272.6601 19.0795 272.5409 15.8267 294.1118 15.5882 294.2906 18.841 306.8383 18.6025 Z" id="GH.UW" fill="#cee3f5" stroke="#6e6e6e" stroke-width="0.4">
      <desc>
        <name>Upper West</name>
        <id>GH.UW</id>
        <admin>Ghana</admin>
        <iso_a2>GH</iso_a2>
        <type_en>Region</type_en>
        <code_hasc>GH.UW</code_hasc>
        <woe_name>Upper West</woe_name>
        <woe_label>Upper West,GH,Ghana</woe_label>
        <fips>GH13</fips>
        <postal>UW</postal>
      </desc>
    </path>
    <path d="M 531.8289 425.5743 526.2705 441.7922 526.4229 453.7967 518.6121 457.182 523.3224 462.6543 519.9106 467.5369 524.6209 479.6076 532.392 482.5424 530.8948 493.1092 536.9765 498.4556 542.4884 498.7338 539.9047 507.0946 543.1841 514.1501 551.5647 518.8141 558.7461 526.1745 570.8831 526.3268 574.487 536.8142 579.6081 544.3004 592.1823 544.4726 592.0962 550.4483 579.3299 557.6298 569.9092 570.893 567.2791 581.5128 563.5028 585.2029 550.5245 587.674 535.6714 587.4554 529.4836 580.6648 524.495 570.045 518.9168 565.0763 511.0132 562.5389 504.8056 566.8981 499.6382 566.812 498.5318 557.5437 487.3687 550.773 477.7956 550.8127 471.8464 545.4332 475.8678 534.8797 480.7901 529.8646 484.6127 519.0129 481.2472 507.0482 482.8969 501.47 473.2377 501.1453 475.2781 490.3798 484.0032 486.3385 482.7909 477.0039 475.3908 471.1409 475.2384 466.1258 486.587 456.9435 483.5726 448.5232 486.2623 443.3359 497.5977 443.7665 502.0695 437.4264 508.2572 423.6465 517.5256 421.4271 531.8289 425.5743 Z" id="GH.TV" fill="#cee3f5" stroke="#6e6e6e" stroke-width="0.4">
      <desc>
        <name>Volta</name>
        <id>GH.TV</id>
        <admin>Ghana</admin>
        <iso_a2>GH</iso_a2>
        <type_en>Region</type_en>
        <code_hasc>GH.TV</code_hasc>
        <woe_name>Volta</woe_name>
        <woe_label>Volta,GH,Ghana</woe_label>
        <fips>GH14</fips>
        <postal>TV</postal>
      </desc>
    </path>
    <path d="M 224.2316 546.7119 230.5452 552.6611 238.4355 554.9202 246.4054 560.8893 258.8868 575.239 264.9222 576.9482 261.0333 587.939 267.9829 591.6888 264.5512 597.9891 263.9152 606.8202 279.0135 601.5931 285.9564 606.3233 285.6318 623.6476 303.1946 629.7691 309.1107 637.348 305.149 642.1445 303.4 648.6569 296.6624 649.4585 290.2362 654.4073 290.3753 667.6308 285.4463 669.5189 283.0613 674.4479 278.4768 675.3356 266.1345 684.9087 254.2758 690.1623 246.9022 697.6088 238.992 699 232.7381 697.7148 231.4793 694.0511 218.3685 687.0353 213.5257 681.265 202.9522 677.3761 189.212 674.3816 175.8826 673.1428 171.954 671.2944 124.4795 661.4232 133.9863 658.3161 138.9351 661.7478 143.4732 657.9451 152.9271 659.4887 162.997 658.7069 166.0048 656.2955 159.7243 640.6672 166.6673 633.6116 168.9926 634.0223 177.6846 626.4897 184.1439 608.0789 182.5473 599.0094 184.9985 596.3594 180.4008 589.3237 188.6158 581.6851 190.0799 569.462 184.3493 564.3807 193.3394 550.9452 203.2371 553.6548 206.4303 551.25 213.9165 551.5945 219.985 546.427 224.2316 546.7119 Z" id="GH.WP" fill="#cee3f5" stroke="#6e6e6e" stroke-width="0.4">
      <desc>
        <name>Western</name>
        <id>GH.WP</id>
        <admin>Ghana</admin>
        <iso_a2>GH</iso_a2>
        <type_en>Region</type_en>
        <code_hasc>GH.WP</code_hasc>
        <woe_name>Western</woe_name>
        <woe_label>Western,GH,Ghana</woe_label>
        <fips>GH15</fips>
        <postal>WP</postal>
      </desc>
    </path>
    <path d="M 150.8071 470.2531 153.6889 477.3551 150.8336 484.9075 150.6812 492.2414 159.0353 497.3691 170.8807 500.5822 171.4439 505.7033 179.0228 506.2664 190.219 517.6879 198.0895 524.2201 203.7472 524.611 206.8609 519.1851 206.6887 510.1553 216.858 509.6783 219.8459 514.2561 221.3961 523.2462 230.055 524.9621 236.6865 530.8848 233.9769 536.5492 229.525 535.4892 222.6217 541.1336 224.2316 546.7119 219.985 546.427 213.9165 551.5945 206.4303 551.25 203.2371 553.6548 193.3394 550.9452 184.3493 564.3807 190.0799 569.462 188.6158 581.6851 180.4008 589.3237 184.9985 596.3594 182.5473 599.0094 184.1439 608.0789 177.6846 626.4897 168.9926 634.0223 166.6673 633.6116 161.4137 611.0337 162.0762 606.7606 151.8273 600.2217 143.3739 603.9383 139.8825 601.6792 141.3996 593.4908 133.4298 594.1864 134.0393 578.1871 128.2358 564.2747 125.1618 546.1885 116.0989 527.2808 110.5935 504.2061 107.8177 495.6334 113.5814 483.2579 111.6138 473.2078 123.6116 453.4919 132.7276 462.005 143.036 460.5939 150.8071 470.2531 Z" id="GH.WN" fill="#cee3f5" stroke="#6e6e6e" stroke-width="0.4">
      <desc>
        <name>Western North</name>
        <id>GH.WN</id>
        <admin>Ghana</admin>
        <iso_a2>GH</iso_a2>
        <type_en>Region</type_en>
        <code_hasc>GH.WN</code_hasc>
        <woe_name>Western North</woe_name>
        <woe_label>Western North,GH,Ghana</woe_label>
        <fips>GH16</fips>
        <postal>WN</postal>
      </desc>
    </path>
  </g>
</svg>